# xmcd
#
# Track frame offsets:
#       150
#       13313
#       38303
#       61430
#       78378
#       88680
#       110958
#       126473
#       137613
#       151365
#       174658
#       197333
#       214333
#       227530
#       246590
#       273748
#       288950
#       299898
#
# Disc length: 4247 seconds
#
# Revision: 0
# Processed by: cddbd v1.4PL0 Copyright (c) Steve Scherf et al.
# Submitted via: WhereIsIt 3.24
#
DISCID=18109512
DTITLE=This Is Blues
DYEAR=1900
DGENRE=
TTITLE0=Billie Holliday - My Man
TTITLE1=Lou Rawls - Tobacco Road
TTITLE2=Wes Montgomery - Summertime
TTITLE3=Sarah Vaughan - Round Midnight
TTITLE4=Albert Collins - Leftovers
TTITLE5=John Lee Hooker - Canned Heat - Drifter
TTITLE6=Ella Fitzerald - Born To Lose
TTITLE7=Fats Domino - Blueberry Hill
TTITLE8=Jimmy Smith - Blues After All
TTITLE9=Joe Williams - Goin' To Chicago Blues
TTITLE10=Johnny Winter - Tribute To Muddy
TTITLE11=Manfred Mann - I Put A Spell On You
TTITLE12=Nina Simone - Backlash Blues
TTITLE13=The Blues Project - Personal Mercy
TTITLE14=The Animals - The Story Of Bo Didley
TTITLE15=Johny Rivers - Got My Mojo Workin'
TTITLE16=Canned Heat - Bullfrog Blues
TTITLE17=Jeff Beck - Ol' Man River
EXTD=
EXTT0=
EXTT1=
EXTT2=
EXTT3=
EXTT4=
EXTT5=
EXTT6=
EXTT7=
EXTT8=
EXTT9=
EXTT10=
EXTT11=
EXTT12=
EXTT13=
EXTT14=
EXTT15=
EXTT16=
EXTT17=
PLAYORDER=
